<svg width="32" height="238.99999999999997" xmlns="http://www.w3.org/2000/svg">
 <!-- Created with Method Draw - http://github.com/duopixel/Method-Draw/ -->

 <g stroke="null">
  <title>background</title>
  <rect x="-1" y="-1" width="34" height="241" id="canvas_background" fill="#ffffff" stroke="null"/>
  <g id="canvasGrid" display="none" stroke="null">
   <rect id="svg_1" width="100%" height="100%" x="0" y="0" stroke-width="0" fill="url(#gridpattern)"/>
  </g>
 </g>
 <g stroke="null">
  <title>Layer 1</title>
  <line fill="none" x1="6.47986" y1="5.53909" x2="6.47986" y2="206.06942" id="svg_6" stroke-linejoin="undefined" stroke-linecap="undefined" stroke="#b1b1b1"/>
  <line fill="none" stroke-opacity="null" fill-opacity="null" x1="6.9868" y1="186.82854" x2="20.62316" y2="186.82853" id="svg_9" stroke-linejoin="undefined" stroke-linecap="undefined" stroke="#b1b1b1"/>
  <line fill="none" stroke-opacity="null" fill-opacity="null" x1="6.48782" y1="212.89884" x2="6.48782" y2="226.09329" id="svg_11" stroke-linejoin="undefined" stroke-linecap="undefined" stroke="#b1b1b1"/>
  <line fill="none" stroke-opacity="null" fill-opacity="null" x1="0.92618" y1="219.40123" x2="13.1484" y2="219.40123" id="svg_12" stroke-linejoin="undefined" stroke-linecap="undefined" stroke="#b1b1b1"/>
  <line fill="none" stroke-opacity="null" fill-opacity="null" x1="6.48389" y1="228.48446" x2="6.48389" y2="236.40113" id="svg_15" stroke-linejoin="undefined" stroke-linecap="undefined" transform="rotate(-0.00005714729195460677 6.493412072317941,232.49617004403245) " stroke="#b1b1b1"/>
  <line fill="none" stroke-opacity="null" fill-opacity="null" x1="7.87426" y1="237.51623" x2="13.44501" y2="237.51623" id="svg_18" stroke-linejoin="undefined" stroke-linecap="undefined" stroke="#b1b1b1"/>
  <line fill="none" stroke-opacity="null" fill-opacity="null" x1="9.18933" y1="2.36617" x2="29.82298" y2="2.29423" id="svg_32" stroke-linejoin="undefined" stroke-linecap="undefined" stroke="#b1b1b1"/>
  <path fill="none" stroke-opacity="null" fill-opacity="null" id="svg_66" d="m6.52538,236.26693c0,0.02417 0,0.04837 0,0.07254c0,0.02417 0,0.07254 0,0.09674c0,0.04837 0,0.07254 0,0.12091c0,0.0242 0,0.04837 0,0.07254c0,0.0242 0.0296,0.0242 0.0296,0.04837c0,0.04837 0.02961,0.07257 0.02961,0.09674c0,0.04837 0.00697,0.07623 0.02961,0.12091c0.01603,0.03162 0.04402,0.0441 0.05923,0.09674c0.0068,0.02356 -0.02095,0.05545 0,0.07257c0.02095,0.01709 0.03828,0.00708 0.05923,0.02417c0.02095,0.01712 -0.00906,0.05945 0.02961,0.07254c0.02735,0.00925 0.03828,0.00711 0.05923,0.0242c0.02093,0.01709 0.00226,0.03912 0.02961,0.04837c0.03868,0.01309 0.03827,0.03125 0.05921,0.04837c0.02095,0.01709 0.03188,0.01492 0.05923,0.02417c0.0387,0.01309 0.0383,0.03128 0.05923,0.04837c0.02095,0.01709 0.02961,0.0242 0.05923,0.0242c0.02961,0 0.0383,0.00708 0.05923,0.02417c0.02095,0.01709 0.02961,0.02417 0.05923,0.02417c0.0296,0 0.03827,0.00708 0.05921,0.0242c0.02095,0.01709 0.05923,0 0.08884,0c0.02961,0 0.02961,0.02417 0.05923,0.02417c0.02961,0 0.03828,0.00708 0.05923,0.0242c0.02095,0.01709 0.05923,0 0.08882,0c0.02961,0 0.0911,-0.00925 0.11846,0c0.03868,0.01309 0.08884,0.02417 0.17769,0.02417l0.0296,0.0242l0.05923,0l0.02961,0" stroke="#b1b1b1"/>
  <path stroke="#b1b1b1" fill="none" stroke-width="null" stroke-opacity="null" fill-opacity="null" id="svg_67" d="m6.49796,5.72813c0,-0.02969 0.00204,-0.05893 0.02526,-0.20786c0.02769,-0.17767 0.06306,-0.35414 0.07575,-0.50481c0.01245,-0.14775 -0.01742,-0.26963 0,-0.35634c0.02596,-0.12925 0.07577,-0.23755 0.10102,-0.29695c0.02526,-0.05939 0.06593,-0.1829 0.10102,-0.26724c0.03999,-0.09618 0.06853,-0.15476 0.12626,-0.23757c0.04529,-0.06495 0.07577,-0.14847 0.15153,-0.23757c0.05051,-0.05938 0.11238,-0.13215 0.17677,-0.20785c0.06439,-0.07571 0.07287,-0.12263 0.10102,-0.14847c0.11607,-0.10655 0.17874,-0.14224 0.25254,-0.17817c0.05217,-0.02542 0.09326,-0.10271 0.12626,-0.11879c0.04667,-0.02273 0.08362,-0.04558 0.12628,-0.08909c0.06033,-0.06153 0.11653,-0.00884 0.17677,-0.08909c0.03736,-0.04977 0.10102,-0.08909 0.15153,-0.11878c0.05051,-0.02969 0.05521,-0.05025 0.10101,-0.08909c0.02897,-0.02456 0.09657,-0.04413 0.15153,-0.05939c0.04915,-0.01365 0.10102,-0.02969 0.15152,-0.02969c0.07577,0 0.10305,-0.00924 0.17679,-0.02969c0.05496,-0.01526 0.07642,-0.02287 0.10101,-0.02969c0.05496,-0.01526 0.07577,-0.05939 0.12628,-0.05939c0.02526,0 0.0579,0.021 0.07577,0c0.01787,-0.021 0.02718,-0.01834 0.0505,-0.02969c0.033,-0.01607 0.05051,-0.02969 0.07577,-0.02969l0.02526,0l0.02526,0l0.02526,0"/>
 </g>
</svg>